# xmcd CD database file
#
# Track frame offsets:
#	150
#	43873
#	63650
#	85158
#	103945
#	119170
#	138146
#	152469
#	167919
#	180144
#	194094
#	210295
#	221920
#	240371
#	260847
#	280498
#	296398
#	318144
#
# Disc length: 4436 seconds
#
# Revision: 1
# Processed by: cddbd v1.5.1PL0 Copyright (c) Steve Scherf et al.
# Submitted via: CDex 1.51
#
DISCID=10115212
DTITLE=Brad Mehldau - One Way Magazine February/March 2004
DYEAR=2004
DGENRE=Jazz
TTITLE0=Get Happy - Brad Mehldau
TTITLE1=Harbor - Vienna Teng
TTITLE2=Golden Rust - Robert Miles and Trilok Gurtu
TTITLE3=Star - The Bloody Lovelies
TTITLE4=Talk To Me - Keri Noble
TTITLE5=Dust - Van Hunt
TTITLE6=Alive - Ima Robot
TTITLE7=Hologram - The Bloody Lovelies
TTITLE8=Scotty Doesn't Know - Lustra
TTITLE9=Caged Heat - Rockin' Ryan And The Real Goners
TTITLE10=I Don't Mind - Ellee Ven
TTITLE11=Mexerico Da Candinha - Wilson Simonal
TTITLE12=Yala - Oumon Sangare
TTITLE13=For A Good Time - Viktor Krauss
TTITLE14=Reflections - Keiko Matsui
TTITLE15=Baby, I Love You - Wynton Marsalis featuring Bobby McFerrin
TTITLE16=Take Me Away - Sarah Kelly
TTITLE17=Song To Sing When I'm Lonely - John Frusciante
EXTD=YEAR: 2004
EXTT0=
EXTT1=
EXTT2=
EXTT3=
EXTT4=
EXTT5=
EXTT6=
EXTT7=
EXTT8=
EXTT9=
EXTT10=
EXTT11=
EXTT12=
EXTT13=
EXTT14=
EXTT15=
EXTT16=
EXTT17=
PLAYORDER=
